<svg width="602" height="69" viewBox="0 0 602 69" fill="none" xmlns="http://www.w3.org/2000/svg">
<path d="M10 2H592C596.418 2 600 5.58172 600 10V59C600 63.4183 596.418 67 592 67H10C5.58173 67 2 63.4183 2 59V10C2 5.71994 5.36114 2.22523 9.58789 2.01074L10 2Z" fill="#D9D9D9" stroke="black" stroke-width="4"/>
<path d="M115.136 48H111.136V38H109.136V40H107.136V42H105.136V48H101.136V30H105.136V38H107.136V36H109.136V34H111.136V30H115.136V48ZM125.136 44H123.136V40H121.136V48H117.136V34H121.136V38H123.136V40H125.136V44ZM131.136 48H127.136V40H125.136V38H127.136V34H131.136V48ZM145.136 48H141.136V42H137.136V48H133.136V42H135.136V40H133.136V36H135.136V34H145.136V48ZM141.136 40V36H137.136V40H141.136Z" fill="black"/>
</svg>
