<svg width="885" height="630" viewBox="0 0 885 630" fill="none" xmlns="http://www.w3.org/2000/svg">
<path d="M524 630H10C4.47715 630 0 625.523 0 620V284.325C0 281.862 0.909126 279.486 2.5531 277.651L82.2562 188.719C83.9002 186.885 84.8093 184.508 84.8093 182.045V12C84.8093 6.47715 89.2865 2 94.8093 2H821C826.523 2 831 6.47714 831 12V538.811C831 541.41 829.988 543.906 828.179 545.772L749.446 626.962C747.563 628.904 744.973 630 742.268 630H571H524Z" fill="#00A7D2" stroke="#000000" stroke-width="7"/>
<g clip-path="url(#clip0_262_174)">
<path d="M105 482.671V288C105 282.477 109.477 278 115 278H147C152.523 278 157 282.477 157 288V482.858C157 485.51 158.054 488.054 159.929 489.929L292.929 622.929C299.229 629.229 294.767 640 285.858 640H271.958C269.415 640 266.968 639.031 265.114 637.291L108.156 489.962C106.142 488.072 105 485.433 105 482.671Z" fill="#008AAC"/>
<rect x="415.838" y="385.381" width="92.9356" height="178.385" transform="rotate(-46.4717 415.838 385.381)" fill="#00A7D2"/>
<path d="M258.454 90H150C144.477 90 140 94.4772 140 100V182.656C140 188.118 144.382 192.569 149.843 192.655L326.412 195.436C329.032 195.477 331.531 196.545 333.372 198.41L628.629 497.591C630.469 499.455 632.967 500.523 635.587 500.565L809.34 503.338C814.925 503.427 819.5 498.924 819.5 493.339V472.5V457C819.5 451.477 815.023 447 809.5 447H635.546C632.951 447 630.457 445.991 628.592 444.187L265.408 92.813C263.543 91.0087 261.049 90 258.454 90Z" fill="#008AAC" stroke="#008AAC"/>
</g>
<defs>
<clipPath id="clip0_262_174">
<rect width="831" height="628" fill="white" transform="translate(54)"/>
</clipPath>
</defs>
</svg>
