<svg width="1600" height="130" viewBox="0 0 1600 130" fill="none" xmlns="http://www.w3.org/2000/svg">
<mask id="path-1-inside-1_145_44" fill="white">
<path d="M1197.96 0C1199.31 2.38438e-05 1200.64 0.27094 1201.88 0.796875L1228.12 11.9561C1229.36 12.482 1230.69 12.7529 1232.04 12.7529H1590C1595.52 12.7529 1600 17.2302 1600 22.7529V120C1600 125.523 1595.52 130 1590 130H402.037C400.693 130 399.362 129.729 398.125 129.203L371.875 118.044C370.638 117.518 369.307 117.247 367.963 117.247H9.99999C4.47715 117.247 0 112.77 0 107.247V10C0 4.47715 4.47715 0 10 0H1197.96Z"/>
</mask>
<path d="M1197.96 0C1199.31 2.38438e-05 1200.64 0.27094 1201.88 0.796875L1228.12 11.9561C1229.36 12.482 1230.69 12.7529 1232.04 12.7529H1590C1595.52 12.7529 1600 17.2302 1600 22.7529V120C1600 125.523 1595.52 130 1590 130H402.037C400.693 130 399.362 129.729 398.125 129.203L371.875 118.044C370.638 117.518 369.307 117.247 367.963 117.247H9.99999C4.47715 117.247 0 112.77 0 107.247V10C0 4.47715 4.47715 0 10 0H1197.96Z" fill="#00A7D2"/>
<path d="M1197.96 0L1197.96 -4H1197.96V0ZM1201.88 0.796875L1203.44 -2.8843V-2.88431L1201.88 0.796875ZM1228.12 11.9561L1226.56 15.6372V15.6372L1228.12 11.9561ZM1232.04 12.7529L1232.04 16.7529H1232.04V12.7529ZM1600 22.7529H1604V22.7528L1600 22.7529ZM1590 130V134V130ZM371.875 118.044L370.31 121.725L371.875 118.044ZM398.125 129.203L399.69 125.522L398.125 129.203ZM1197.96 0L1197.96 4C1198.77 4.00001 1199.57 4.16264 1200.31 4.47806L1201.88 0.796875L1203.44 -2.88431C1201.71 -3.62076 1199.84 -3.99997 1197.96 -4L1197.96 0ZM1201.88 0.796875L1200.31 4.47805L1226.56 15.6372L1228.12 11.9561L1229.69 8.27488L1203.44 -2.8843L1201.88 0.796875ZM1228.12 11.9561L1226.56 15.6372C1228.29 16.3737 1230.16 16.7529 1232.04 16.7529L1232.04 12.7529L1232.04 8.75293C1231.23 8.75291 1230.43 8.59029 1229.69 8.27487L1228.12 11.9561ZM1232.04 12.7529V16.7529H1590V12.7529V8.75293H1232.04V12.7529ZM1590 12.7529V16.7529C1593.31 16.7529 1596 19.4393 1596 22.753L1600 22.7529L1604 22.7528C1604 15.0211 1597.73 8.75293 1590 8.75293V12.7529ZM1600 22.7529H1596V120H1600H1604V22.7529H1600ZM1600 120H1596C1596 123.314 1593.31 126 1590 126V130V134C1597.73 134 1604 127.732 1604 120H1600ZM1590 130V126H402.037V130V134H1590V130ZM398.125 129.203L399.69 125.522L373.44 114.363L371.875 118.044L370.31 121.725L396.56 132.884L398.125 129.203ZM367.963 117.247V113.247H9.99999V117.247V121.247H367.963V117.247ZM0 107.247H4V10H0H-4V107.247H0ZM10 0V4H1197.96V0V-4H10V0ZM0 10H4C4 6.68629 6.68629 4 10 4V0V-4C2.26801 -4 -4 2.26801 -4 10H0ZM9.99999 117.247V113.247C6.68629 113.247 4 110.561 4 107.247H0H-4C-4 114.979 2.268 121.247 9.99999 121.247V117.247ZM371.875 118.044L373.44 114.363C371.708 113.627 369.845 113.247 367.963 113.247V117.247V121.247C368.769 121.247 369.568 121.41 370.31 121.725L371.875 118.044ZM402.037 130V126C401.231 126 400.432 125.837 399.69 125.522L398.125 129.203L396.56 132.884C398.292 133.62 400.155 134 402.037 134V130Z" fill="black" mask="url(#path-1-inside-1_145_44)"/>
</svg>
