<svg width="1600" height="158" viewBox="0 0 1600 158" fill="none" xmlns="http://www.w3.org/2000/svg">
<path d="M1197.57 0C1199.17 5.93925e-06 1200.74 0.383083 1202.16 1.11621L1227.84 14.3838C1229.26 15.1169 1230.83 15.5 1232.43 15.5H1590C1595.52 15.5 1600 19.9772 1600 25.5V148C1600 153.523 1595.52 158 1590 158H402.431C400.833 158 399.26 157.617 397.841 156.884L372.159 143.616C370.74 142.883 369.167 142.5 367.569 142.5H9.99999C4.47715 142.5 0 138.023 0 132.5V10C0 4.47715 4.47715 0 10 0H1197.57Z" fill="#00A7D2"/>
</svg>
