<svg width="887" height="632" viewBox="0 0 887 632" fill="none" xmlns="http://www.w3.org/2000/svg">
<path d="M526 630H12C6.47715 630 2 625.523 2 620V284.325C2 281.862 2.90913 279.486 4.5531 277.651L84.2562 188.719C85.9002 186.885 86.8093 184.508 86.8093 182.045V12C86.8093 6.47715 91.2865 2 96.8093 2H823C828.523 2 833 6.47714 833 12V538.811C833 541.41 831.988 543.906 830.179 545.772L751.446 626.962C749.563 628.904 746.973 630 744.268 630H573H526Z" fill="#00A7D2" stroke="black" stroke-width="4"/>
<g clip-path="url(#clip0_262_174)">
<path d="M107 482.671V288C107 282.477 111.477 278 117 278H149C154.523 278 159 282.477 159 288V482.858C159 485.51 160.054 488.054 161.929 489.929L294.929 622.929C301.229 629.229 296.767 640 287.858 640H273.958C271.415 640 268.968 639.031 267.114 637.291L110.156 489.962C108.142 488.072 107 485.433 107 482.671Z" fill="#008AAC"/>
<rect x="417.838" y="385.381" width="92.9356" height="178.385" transform="rotate(-46.4717 417.838 385.381)" fill="#00A7D2"/>
<path d="M260.454 90H152C146.477 90 142 94.4772 142 100V182.656C142 188.118 146.382 192.569 151.843 192.655L328.412 195.436C331.032 195.477 333.531 196.545 335.372 198.41L630.629 497.591C632.469 499.455 634.967 500.523 637.587 500.565L811.34 503.338C816.925 503.427 821.5 498.924 821.5 493.339V472.5V457C821.5 451.477 817.023 447 811.5 447H637.546C634.951 447 632.457 445.991 630.592 444.187L267.408 92.813C265.543 91.0087 263.049 90 260.454 90Z" fill="#008AAC" stroke="#008AAC"/>
</g>
<defs>
<clipPath id="clip0_262_174">
<rect width="831" height="628" fill="white" transform="translate(56)"/>
</clipPath>
</defs>
</svg>
