<svg width="1944" height="895" viewBox="0 0 1944 895" fill="none" xmlns="http://www.w3.org/2000/svg">
<path d="M0 74.8486C0 69.3258 4.47715 64.8486 10 64.8486H911.639C914.111 64.8486 916.496 63.9329 918.333 62.2782L984.608 2.57042C986.444 0.915714 988.829 0 991.301 0H1934C1939.52 0 1944 4.47715 1944 10V739.802C1944 742.212 1943.13 744.54 1941.55 746.359L1857.49 843.143C1855.59 845.33 1852.84 846.586 1849.94 846.586H1383.47C1381.11 846.586 1378.82 847.423 1377.01 848.948L1325.32 892.637C1323.52 894.163 1321.23 895 1318.87 895H404.483C402.206 895 399.998 894.224 398.223 892.799L343.409 848.805C341.62 847.369 339.392 846.592 337.098 846.604L10.0521 848.31C4.50898 848.339 0 843.853 0 838.31V74.8486Z" fill="#BED0D2"/>
</svg>
