<svg width="1920" height="1008" viewBox="0 0 1920 1008" fill="none" xmlns="http://www.w3.org/2000/svg">
<path d="M-20 83.0362C-20 77.5134 -15.5228 73.0362 -10 73.0362H891.295C893.972 73.0362 896.538 71.9626 898.417 70.0557L964.523 2.98056C966.403 1.07364 968.968 0 971.646 0H1914C1919.52 0 1924 4.47715 1924 10V834.007C1924 836.217 1923.27 838.364 1921.92 840.114L1837.5 949.58C1835.61 952.035 1832.68 953.473 1829.58 953.473H1363.81C1361.24 953.473 1358.77 954.46 1356.91 956.23L1305.42 1005.24C1303.57 1007.01 1301.1 1008 1298.53 1008H384.816C382.338 1008 379.948 1007.08 378.11 1005.42L323.525 956.077C321.671 954.402 319.258 953.481 316.76 953.496L-9.94127 955.415C-15.487 955.447 -20 950.961 -20 945.415V83.0362Z" fill="#BED0D2"/>
</svg>
