<svg width="1944" height="100" viewBox="0 0 1944 807" fill="none" xmlns="http://www.w3.org/2000/svg">
<path d="M0 68.4725C0 62.9496 4.47715 58.4725 10 58.4725H911.93C914.226 58.4725 916.452 57.6821 918.235 56.2342L984.705 2.23821C986.488 0.790328 988.714 0 991.011 0H1934C1939.52 0 1944 4.47715 1944 10V666.398C1944 668.985 1943 671.472 1941.2 673.335L1857.45 760.283C1855.56 762.24 1852.96 763.346 1850.25 763.346H1383.19C1381 763.346 1378.87 764.065 1377.12 765.392L1325.21 804.954C1323.47 806.281 1321.34 807 1319.15 807H404.205C402.099 807 400.048 806.335 398.342 805.101L343.288 765.26C341.57 764.016 339.5 763.351 337.379 763.361L10.047 764.901C4.50588 764.927 0 760.442 0 754.901V68.4725Z" fill="#BED0D2"/>
</svg>
