<svg width="1920" height="226" viewBox="0 0 1920 226" fill="none" xmlns="http://www.w3.org/2000/svg">
<path d="M1911.5 0C1917.02 0 1921.5 4.47716 1921.5 10V194.5C1921.5 200.023 1917.02 204.5 1911.5 204.5H1082.02C1080.69 204.5 1079.37 204.767 1078.14 205.285L1030.86 225.215C1029.63 225.733 1028.31 226 1026.98 226H492.702C490.932 226 489.194 225.53 487.666 224.639L457.172 206.861C455.643 205.97 453.905 205.5 452.136 205.5H9.99999C4.47714 205.5 0 201.023 0 195.5V10C0 4.47716 4.47715 0 10 0H1911.5Z" fill="#BED0D2"/>
</svg>
