<svg width="3318" height="441" viewBox="0 0 3318 441" fill="none" xmlns="http://www.w3.org/2000/svg">
<path d="M385.067 63.9853C386.944 65.8749 389.498 66.9375 392.161 66.9375H2925.84C2928.5 66.9375 2931.06 65.8749 2932.93 63.9853L2993.57 2.95215C2995.44 1.06259 2998 0 3000.66 0H3308C3313.52 0 3318 4.47715 3318 10V431C3318 436.523 3313.52 441 3308 441H2221.38C2217.24 441 2213.52 438.445 2212.04 434.576L2189.96 376.924C2188.48 373.055 2184.76 370.5 2180.62 370.5H1137.38C1133.24 370.5 1129.52 373.055 1128.04 376.924L1105.96 434.576C1104.48 438.445 1100.76 441 1096.62 441H9.99997C4.47713 441 0 436.523 0 431V10C0 4.47716 4.47715 0 10 0H317.339C320.002 0 322.556 1.06259 324.433 2.95215L385.067 63.9853Z" fill="#008AAC"/>
</svg>
