<svg width="783" height="98" viewBox="0 0 783 98" fill="none" xmlns="http://www.w3.org/2000/svg">
<mask id="path-1-inside-1_258_535" fill="white">
<path d="M718.494 0C720.764 9.851e-05 722.966 0.77222 724.738 2.18945L779.245 45.7705C781.618 47.6682 783 50.5423 783 53.5811V87.5459C783 93.0687 778.523 97.5459 773 97.5459H64.5059C62.2363 97.5458 60.0344 96.7737 58.2617 95.3564L3.75488 51.7754C1.38163 49.8777 0 47.0035 0 43.9648V10C0 4.47715 4.47715 0 10 0H718.494Z"/>
</mask>
<path d="M718.494 0C720.764 9.851e-05 722.966 0.77222 724.738 2.18945L779.245 45.7705C781.618 47.6682 783 50.5423 783 53.5811V87.5459C783 93.0687 778.523 97.5459 773 97.5459H64.5059C62.2363 97.5458 60.0344 96.7737 58.2617 95.3564L3.75488 51.7754C1.38163 49.8777 0 47.0035 0 43.9648V10C0 4.47715 4.47715 0 10 0H718.494Z" fill="#D9D9D9"/>
<path d="M718.494 0L718.494 -4H718.494V0ZM724.738 2.18945L727.236 -0.934705L727.236 -0.934775L724.738 2.18945ZM779.245 45.7705L781.743 42.6464L781.743 42.6464L779.245 45.7705ZM64.5059 97.5459L64.5057 101.546H64.5059V97.5459ZM58.2617 95.3564L55.7638 98.4806L55.7638 98.4806L58.2617 95.3564ZM3.75488 51.7754L1.25685 54.8995L1.25696 54.8995L3.75488 51.7754ZM718.494 0L718.494 4C719.856 4.00006 721.177 4.46332 722.24 5.31368L724.738 2.18945L727.236 -0.934775C724.754 -2.91888 721.672 -3.99986 718.494 -4L718.494 0ZM724.738 2.18945L722.24 5.31361L776.747 48.8947L779.245 45.7705L781.743 42.6464L727.236 -0.934705L724.738 2.18945ZM779.245 45.7705L776.747 48.8946C778.171 50.0331 779 51.7576 779 53.5811H783H787C787 49.3271 785.066 45.3033 781.743 42.6464L779.245 45.7705ZM783 53.5811H779V87.5459H783H787V53.5811H783ZM783 87.5459H779C779 90.8596 776.314 93.5459 773 93.5459V97.5459V101.546C780.732 101.546 787 95.2779 787 87.5459H783ZM773 97.5459V93.5459H64.5059V97.5459V101.546H773V97.5459ZM64.5059 97.5459L64.506 93.5459C63.1443 93.5458 61.8232 93.0826 60.7596 92.2323L58.2617 95.3564L55.7638 98.4806C58.2456 100.465 61.3283 101.546 64.5057 101.546L64.5059 97.5459ZM58.2617 95.3564L60.7596 92.2323L6.25281 48.6512L3.75488 51.7754L1.25696 54.8995L55.7638 98.4806L58.2617 95.3564ZM3.75488 51.7754L6.25292 48.6513C4.82911 47.5128 4 45.7882 4 43.9648H0H-4C-4 48.2188 -2.06586 52.2426 1.25685 54.8995L3.75488 51.7754ZM0 43.9648H4V10H0H-4V43.9648H0ZM0 10H4C4 6.68629 6.68629 4 10 4V0V-4C2.26801 -4 -4 2.26801 -4 10H0ZM10 0V4H718.494V0V-4H10V0Z" fill="black" mask="url(#path-1-inside-1_258_535)"/>
</svg>
