<svg width="1756" height="805" viewBox="0 0 1756 805" fill="none" xmlns="http://www.w3.org/2000/svg">
<path d="M953.502 2.39569H1744C1749.52 2.39569 1754 6.87286 1754 12.3957V727.716C1754 729.849 1753.32 731.927 1752.05 733.644L1704 798.927C1702.11 801.487 1699.12 802.999 1695.94 802.999H12C6.47717 802.999 2 798.522 2 792.999V147.938C2 145.71 2.74414 143.546 4.1145 141.789L62.1337 67.3932C64.053 64.9323 66.9685 63.5081 70.0892 63.5424C313.476 66.2132 642.59 64.6729 885.806 63.8967C888.511 63.888 891.06 62.7838 892.937 60.8357L946.302 5.45679C948.186 3.50073 950.786 2.39569 953.502 2.39569Z" fill="#DCD4CB" stroke="black" stroke-width="4"/>
</svg>
