<svg width="748" height="247" viewBox="0 0 748 247" fill="none" xmlns="http://www.w3.org/2000/svg">
<path d="M304.848 2H7C4.23858 2 2 4.23858 2 7V59.5929V111.983V195.163L26.833 245H128.5H381.18C384.226 245 387.105 243.612 389.003 241.229L419.992 202.312C425.684 195.164 434.323 191 443.461 191H537H736C741.523 191 746 186.523 746 181V69.5929C746 64.0701 741.523 59.5929 736 59.5929H362.652C359.703 59.5929 356.903 58.2906 355.003 56.0344L312.497 5.55859C310.597 3.30231 307.797 2 304.848 2Z" fill="#DCD4CB" stroke="black" stroke-width="4"/>
</svg>
