<svg width="1620" height="112" viewBox="0 0 1620 112" fill="none" xmlns="http://www.w3.org/2000/svg">
<path d="M10 6H159.197C160.262 6 161.316 6.21261 162.297 6.625L179.363 13.7979C180.835 14.4166 182.417 14.7354 184.014 14.7354H305.946C307.868 14.7354 309.762 14.2732 311.469 13.3887L323.992 6.89746C325.13 6.30783 326.393 6 327.674 6H1610C1614.42 6 1618 9.58172 1618 14V102C1618 106.418 1614.42 110 1610 110H10C5.58172 110 2 106.418 2 102V14C2 9.58172 5.58172 6 10 6Z" fill="#FFC943" stroke="black" stroke-width="4"/>
<rect x="177.257" y="8" width="127.442" height="102" rx="8" fill="#D9D9D9" stroke="black" stroke-width="4"/>
</svg>
