<svg width="1714" height="632" viewBox="0 0 1714 632" fill="none" xmlns="http://www.w3.org/2000/svg">
<path d="M1248.5 630L1701.5 629.999C1707.02 629.999 1711.5 625.522 1711.5 619.999V455.249V284.324C1711.5 281.861 1710.59 279.484 1708.95 277.65L1629.24 188.718C1627.6 186.884 1626.69 184.507 1626.69 182.044V84.499C1626.69 78.9762 1622.21 74.499 1616.69 74.499L1204.95 74.4988C1202.72 74.4988 1200.54 73.7491 1198.78 72.3695L1111.72 4.12938C1109.96 2.74973 1107.78 2 1105.55 2H12.0005C6.47766 2 2.00049 6.47715 2.00049 12V458.466C2.00049 462.927 4.95447 466.848 9.24182 468.078L162.374 512.029C165.578 512.948 168.113 515.404 169.134 518.577L202.767 623.063C204.098 627.196 207.944 629.999 212.286 629.999L1201.5 630H1248.5Z" fill="#00A7D2" stroke="black" stroke-width="4"/>
<path d="M1624 132.05L71.4997 132.05C65.9769 132.05 61.4997 136.527 61.4997 142.05L61.4997 264.144C61.4997 268.288 64.056 272.003 67.9268 273.484L113.75 291.013L161.279 309.194C164.247 310.33 166.499 312.809 167.345 315.873L207 459.5L261 630.5" stroke="black" stroke-width="4"/>
</svg>
